<svg width="596" height="620" viewBox="0 0 596 620" fill="none" xmlns="http://www.w3.org/2000/svg">
<path d="M246.099 610.998L236.599 201.367L59.5417 201.367L62.1328 610.998H246.099Z" fill="#F1F6FF"/>
<path d="M309.149 608.881V337.77L522.913 343.89V608.881H309.149Z" fill="#FEFCED"/>
<path d="M59.5421 201.367L62.1331 610.998H162.753L158.003 201.367H59.5421Z" fill="#7398F7"/>
<path d="M186.936 159.855H113.522V201.369H186.936V159.855Z" fill="#1F1D42"/>
<path d="M113.522 159.855V201.369H163.184C139.346 196.285 131.947 171.575 131.227 159.855H113.522Z" fill="#1F1717"/>
<path d="M155.844 89.1111L147.207 88.2639C145.048 87.4167 144.616 77.6737 152.821 79.7917C159.385 81.4862 157.571 86.7107 155.844 89.1111Z" fill="#0E173D"/>
<path d="M155.844 89.1121L147.207 88.2648V100.549L155.844 101.397V89.1121Z" fill="#0E173D"/>
<path d="M147.206 100.548L155.843 101.396L187.8 123.847H113.091L147.206 100.548Z" fill="#1F1D42"/>
<path d="M330.31 403.007H323.4V451.298H320.377V456.381H333.333V449.604H330.31V403.007Z" fill="#1B2A63"/>
<path d="M522.913 612.269H309.149V473.325L522.913 476.385V612.269Z" fill="#A3BDFF"/>
<path d="M457.272 242.458L226.234 235.257L309.149 337.77L531.118 344.124L457.272 242.458Z" fill="#063183"/>
<path d="M309.149 337.77L531.118 344.124L322.536 238.258L226.234 235.257L309.149 337.77Z" fill="#7087FB"/>
<path d="M226.234 235.257L309.149 337.77V605.915L156.275 613.117V476.291V337.77L197.301 284.819H188.232L226.234 235.257Z" fill="#CFDEF3"/>
<path d="M256.032 297.527H210.688V350.902H256.032V297.527Z" fill="#0C183F"/>
<rect x="215.87" y="303.033" width="15.5465" height="18.6388" fill="#1F326B"/>
<rect x="237.463" y="303.033" width="15.5465" height="18.6388" fill="#1F326B"/>
<rect x="237.463" y="328.451" width="15.5465" height="18.6388" fill="#1F326B"/>
<path d="M113.092 123.846H187.801H192.984V125.964H107.046V123.846H113.092Z" stroke="black"/>
<path d="M154.117 378.012H310.013H523.345" stroke="black" stroke-width="4"/>
<path d="M154.982 486.457H307.423H521.619" stroke="black" stroke-width="5"/>
<path d="M154.982 486.457H307.423" stroke="#5267FA" stroke-width="6"/>
<rect x="215.87" y="328.451" width="15.5465" height="18.6388" fill="#1F326B"/>
<path d="M116.113 289.901H93.2255V350.901H117.841L116.113 289.901Z" fill="#0E173D"/>
<path d="M116.113 395.381H93.2255V456.381H117.841L116.113 395.381Z" fill="#0C193F"/>
<path d="M117.41 267.027H94.0903V220.43C99.618 205.18 108.773 214.076 112.66 220.43L117.41 267.027Z" fill="#1F1D42"/>
<path d="M359.245 247.118H334.629L313.037 240.763V201.368V199.25L334.629 198.677L360.972 197.979L360.853 201.368L359.245 247.118Z" fill="#1F326B"/>
<path d="M359.245 247.118H334.629V201.368V198.677L360.972 197.979L360.853 201.368L359.245 247.118Z" fill="#FEFDE8"/>
<path d="M313.037 199.25L334.629 198.677L360.972 197.979L360.853 201.368H334.629H313.037V199.25Z" fill="#112F7F"/>
<rect x="184.779" y="125.966" width="1.72739" height="33.8888" fill="#0C1942"/>
<rect x="246.099" y="166.632" width="1.69444" height="193.467" transform="rotate(90 246.099 166.632)" fill="#0C1942"/>
<rect x="246.099" y="199.673" width="1.69444" height="193.467" transform="rotate(90 246.099 199.673)" fill="#0C1942"/>
<path d="M59.5093 231.867H159.266H237.402" stroke="#18265D" stroke-width="4"/>
<rect x="246.099" y="186.118" width="1.69444" height="193.467" transform="rotate(90 246.099 186.118)" fill="#081334"/>
<rect x="113.091" y="125.966" width="1.72739" height="33.8888" fill="#132355"/>
<rect x="131.228" y="131.895" width="1.72739" height="27.9582" fill="#132355"/>
<rect x="134.683" y="131.895" width="1.72739" height="27.9582" fill="#132355"/>
<rect x="139.865" y="131.895" width="1.72739" height="27.9582" fill="#132355"/>
<path d="M226.234 235.257L232.059 244.153M309.149 337.77L302.87 330.145M232.059 244.153L462.503 249.66M232.059 244.153L242.523 256.861M242.523 256.861L471.426 261.944M242.523 256.861L254.035 270.84M254.035 270.84L480.349 274.229M254.035 270.84L263.373 282.18M263.373 282.18L489.272 286.514M263.373 282.18L274.615 295.833M274.615 295.833L498.297 298.939M274.615 295.833L284.033 307.27M284.033 307.27L507.798 312.019M284.033 307.27L296.591 322.52M296.591 322.52H515.425M296.591 322.52L302.87 330.145M302.87 330.145L523.272 333.322" stroke="#A3BDFF" stroke-width="4"/>
<rect x="85.4538" y="168.327" width="1.72739" height="31.3471" fill="#121B3A"/>
<rect x="52.6329" y="168.327" width="1.72739" height="31.3471" fill="#121B3A"/>
<rect x="244.372" y="168.327" width="1.72739" height="31.3471" fill="#121B3A"/>
<path d="M385.155 511.026H371.336V579.651H385.155V511.026Z" fill="#0C183F"/>
<path d="M371.336 579.651H385.155V545.339H371.336V579.651Z" fill="#17275F"/>
<path d="M499.594 548.304H476.706V580.499H499.594V548.304Z" fill="#17275F"/>
<path d="M151.958 79.7914L150.231 1" stroke="black" stroke-width="3"/>
<rect x="215.008" y="168.327" width="1.72739" height="31.3471" fill="#121B3A"/>
<rect x="154.548" y="168.327" width="1.72739" height="31.3471" fill="#121B3A"/>
<rect x="79.4072" y="168.327" width="1.72739" height="31.3471" fill="#121B3A"/>
<rect x="208.961" y="168.327" width="1.72739" height="31.3471" fill="#121B3A"/>
<rect x="208.961" y="168.327" width="1.72739" height="31.3471" fill="#121B3A"/>
<rect x="148.504" y="168.327" width="1.72739" height="31.3471" fill="#121B3A"/>
<rect x="162.322" y="131.895" width="1.72739" height="27.9582" fill="#121B3A"/>
<rect x="165.776" y="131.895" width="1.72739" height="27.9582" fill="#121B3A"/>
<rect x="156.275" y="131.895" width="1.72739" height="27.9582" fill="#121B3A"/>
<path d="M476.706 580.499H499.594V564.402H476.706V580.499Z" fill="#0F1C49"/>
<path d="M513.844 556.353H505.207V574.145L513.844 573.721V556.353Z" fill="#FAF2E2"/>
<path d="M204.642 511.449V548.727H208.96V604.643H216.302V546.185H211.551V517.804H253.872V546.185H246.963V604.643H251.281V548.727H259.486V511.449H204.642Z" fill="#0D0808"/>
<path d="M246.965 546.186V604.644H216.304V546.186H211.553V517.804H253.874V546.186H246.965Z" fill="#17275F"/>
<path d="M595.736 611.421H0.380554V620H595.736V611.421Z" fill="#091D39"/>
<path d="M583.374 611.422V576.686M520.324 576.686V611.422M455.547 576.686V611.422M393.793 576.686V611.422M329.88 576.686V611.422M264.671 576.686V611.422M205.94 576.686V611.422M139.867 576.686V611.422M75.9541 576.686V611.422M15.0637 576.686V611.422" stroke="black" stroke-width="4"/>
<path d="M583.373 582C569.842 593.579 538.289 609.789 520.324 582C505.641 590.755 472.13 602.78 455.547 581.769C442.591 590.241 412.103 603.288 393.793 587.699C380.981 593.489 350.263 601.594 329.88 587.699C312.03 591.371 273.999 596.511 264.671 587.699C252.579 591.371 223.904 596.511 205.94 587.699C188.522 591.371 150.922 596.511 139.867 587.699C121.442 593.912 91.9325 602.102 75.9538 587.699C58.5711 591.371 24.2045 597.311 14.1435 588.5" stroke="black" stroke-width="3"/>
<ellipse cx="583.467" cy="574.965" rx="3.02293" ry="2.96527" fill="#06162A"/>
<ellipse cx="520.324" cy="574.568" rx="3.02293" ry="2.96527" fill="#06162A"/>
<ellipse cx="455.547" cy="575.416" rx="3.02293" ry="2.96527" fill="#06162A"/>
<ellipse cx="393.851" cy="574.965" rx="3.02293" ry="2.96527" fill="#06162A"/>
<ellipse cx="329.626" cy="574.965" rx="3.02293" ry="2.96527" fill="#06162A"/>
<ellipse cx="264.67" cy="575.416" rx="3.02293" ry="2.96527" fill="#06162A"/>
<ellipse cx="205.94" cy="574.568" rx="3.02293" ry="2.96527" fill="#06162A"/>
<ellipse cx="140.009" cy="574.568" rx="3.02293" ry="2.96527" fill="#06162A"/>
<ellipse cx="75.784" cy="576.262" rx="3.02293" ry="2.96527" fill="#06162A"/>
<ellipse cx="14.6174" cy="577.965" rx="3.02293" ry="2.96527" fill="#06162A"/>
<path d="M58.2482 45.479L71.2036 56.4928L84.159 45.479" stroke="black" stroke-width="4"/>
<path d="M9.01691 38.7016L21.9723 49.7154L34.9277 38.7016" stroke="black" stroke-width="4"/>
<path d="M65.1574 16.675L78.1128 27.6889L91.0682 16.675" stroke="black" stroke-width="4"/>
<path d="M135.981 20.9098L148.936 31.9236L161.892 20.9098" stroke="black" stroke-width="4"/>
<path d="M261.216 390.298H214.577L216.304 458.076H261.216V390.298Z" fill="#0F1F4C"/>
<path d="M249.988 401.736H225.805V446.638H249.988V401.736Z" fill="#142553"/>
</svg>
