<svg width="117" height="34" viewBox="0 0 117 34" fill="none" xmlns="http://www.w3.org/2000/svg">
<g filter="url(#filter0_d_2_713)">
<mask id="path-1-outside-1_2_713" maskUnits="userSpaceOnUse" x="4" y="-3.05176e-05" width="109" height="26" fill="black">
<rect fill="white" x="4" y="-3.05176e-05" width="109" height="26"/>
<path d="M5 24.6162V1.76741H11.9941C17.0513 1.76741 19.5798 3.74416 19.5798 7.69764C19.5798 8.97671 19.2551 10.0814 18.6055 11.0116C17.956 11.9418 17.0745 12.5232 15.961 12.7558C17.2601 12.9418 18.2692 13.5116 18.9883 14.4651C19.7306 15.3953 20.1134 16.6162 20.1366 18.1279C20.1366 22.4535 17.318 24.6162 11.681 24.6162H5ZM12.2029 21.4767C13.734 21.4767 14.8243 21.1395 15.4738 20.4651C16.1234 19.7907 16.4481 18.8953 16.4481 17.779C16.4481 16.6395 16.0886 15.8139 15.3694 15.3023C14.6735 14.7907 13.56 14.5349 12.0289 14.5349H8.61886V21.4767H12.2029ZM16.0306 7.97671C16.0306 5.9302 14.7663 4.90695 12.2377 4.90695H8.61886V11.3953H11.9593C14.6735 11.3953 16.0306 10.2558 16.0306 7.97671Z"/>
<path d="M22.5376 16.3488C22.5376 13.5349 23.1639 11.4069 24.4166 9.96509C25.6693 8.49997 27.4091 7.76741 29.6361 7.76741C31.8631 7.76741 33.5797 8.4302 34.786 9.75578C36.0155 11.0581 36.6534 12.9767 36.6998 15.5116L36.5607 18.093H26.4C26.6088 20.6046 27.8615 21.8604 30.158 21.8604C31.7587 21.8604 33.4521 21.5697 35.2384 20.9883L35.9691 24.0232C35.2268 24.279 34.2641 24.5 33.081 24.686C31.8979 24.8953 30.9236 25 30.158 25C25.0777 25 22.5376 22.1162 22.5376 16.3488ZM29.7753 11.0116C28.685 11.0116 27.8615 11.3372 27.3047 11.9883C26.7712 12.6162 26.4696 13.6744 26.4 15.1628H32.8374C32.8374 12.3953 31.8167 11.0116 29.7753 11.0116Z"/>
<path d="M39.0312 23.8488L39.7967 20.6744C42.0005 21.3721 43.752 21.7209 45.0511 21.7209C46.3501 21.7209 47.2317 21.593 47.6956 21.3372C48.1596 21.1046 48.3915 20.686 48.3915 20.0814C48.3915 19.4767 48.1828 19.0465 47.7652 18.7907C47.3476 18.5349 46.5589 18.2674 45.399 17.9883C43.1024 17.4302 41.5018 16.8139 40.5971 16.1395C39.6924 15.4418 39.24 14.3139 39.24 12.7558C39.24 9.4302 41.3742 7.76741 45.6426 7.76741C47.4752 7.76741 49.5978 8.06974 52.0104 8.67439L51.3493 11.9883C49.0527 11.3372 47.2781 11.0116 46.0254 11.0116C44.7727 11.0116 43.926 11.1279 43.4852 11.3604C43.0676 11.5697 42.8589 11.9418 42.8589 12.4767C42.8589 13.0116 43.0676 13.4069 43.4852 13.6628C43.926 13.8953 45.0395 14.2558 46.8257 14.7442C48.6119 15.2325 49.9226 15.8023 50.7577 16.4535C51.5928 17.0814 52.0104 18.1628 52.0104 19.6976C52.0104 23.2093 49.853 24.9651 45.5382 24.9651C43.52 24.9651 41.351 24.593 39.0312 23.8488Z"/>
<path d="M58.2738 8.04648L58.3434 9.05811C60.2224 8.19764 61.6955 7.76741 62.7626 7.76741C64.6416 7.76741 66.0219 8.32555 66.9034 9.44183C67.8081 10.5349 68.2605 12.2558 68.2605 14.6046V24.6162H64.6764V14.7093C64.6764 13.593 64.4792 12.7209 64.0849 12.093C63.6905 11.4651 63.0758 11.1511 62.2407 11.1511C61.4055 11.1511 60.1181 11.5581 58.3782 12.3721V24.6162H54.7941V8.04648H58.2738Z"/>
<path d="M70.9746 24.6162V21.4069H76.1594V11.2558H71.253V8.04648H79.7434V21.4069H84.6498V24.6162H70.9746ZM77.76 5.6395C77.0641 5.6395 76.5073 5.4302 76.0898 5.0116C75.6954 4.56974 75.4982 3.99997 75.4982 3.3023C75.4982 2.60462 75.707 2.04648 76.1246 1.62788C76.5421 1.20927 77.0989 0.999969 77.7948 0.999969C78.5139 0.999969 79.0591 1.20927 79.4302 1.62788C79.8246 2.02323 80.0218 2.58137 80.0218 3.3023C80.0218 4.02323 79.8246 4.59299 79.4302 5.0116C79.0359 5.4302 78.4791 5.6395 77.76 5.6395Z"/>
<path d="M87.5379 24.6162V1.41858H91.122V14.7093L93.4185 14.4651C94.7176 12.7907 95.8543 10.9767 96.8286 9.02323L97.3158 8.04648H101.213C99.7516 11.1395 98.1277 13.7209 96.3415 15.7907C97.8261 17.9069 99.3224 20.4069 100.83 23.2907L101.526 24.6162H97.455C96.3183 22.1511 95.0192 19.7907 93.5577 17.5349L91.122 17.779V24.6162H87.5379Z"/>
<path d="M106.954 24.6162V19.5581H112V24.6162H106.954Z"/>
</mask>
<path d="M5 24.6162V1.76741H11.9941C17.0513 1.76741 19.5798 3.74416 19.5798 7.69764C19.5798 8.97671 19.2551 10.0814 18.6055 11.0116C17.956 11.9418 17.0745 12.5232 15.961 12.7558C17.2601 12.9418 18.2692 13.5116 18.9883 14.4651C19.7306 15.3953 20.1134 16.6162 20.1366 18.1279C20.1366 22.4535 17.318 24.6162 11.681 24.6162H5ZM12.2029 21.4767C13.734 21.4767 14.8243 21.1395 15.4738 20.4651C16.1234 19.7907 16.4481 18.8953 16.4481 17.779C16.4481 16.6395 16.0886 15.8139 15.3694 15.3023C14.6735 14.7907 13.56 14.5349 12.0289 14.5349H8.61886V21.4767H12.2029ZM16.0306 7.97671C16.0306 5.9302 14.7663 4.90695 12.2377 4.90695H8.61886V11.3953H11.9593C14.6735 11.3953 16.0306 10.2558 16.0306 7.97671Z" fill="#000228"/>
<path d="M22.5376 16.3488C22.5376 13.5349 23.1639 11.4069 24.4166 9.96509C25.6693 8.49997 27.4091 7.76741 29.6361 7.76741C31.8631 7.76741 33.5797 8.4302 34.786 9.75578C36.0155 11.0581 36.6534 12.9767 36.6998 15.5116L36.5607 18.093H26.4C26.6088 20.6046 27.8615 21.8604 30.158 21.8604C31.7587 21.8604 33.4521 21.5697 35.2384 20.9883L35.9691 24.0232C35.2268 24.279 34.2641 24.5 33.081 24.686C31.8979 24.8953 30.9236 25 30.158 25C25.0777 25 22.5376 22.1162 22.5376 16.3488ZM29.7753 11.0116C28.685 11.0116 27.8615 11.3372 27.3047 11.9883C26.7712 12.6162 26.4696 13.6744 26.4 15.1628H32.8374C32.8374 12.3953 31.8167 11.0116 29.7753 11.0116Z" fill="#000228"/>
<path d="M39.0312 23.8488L39.7967 20.6744C42.0005 21.3721 43.752 21.7209 45.0511 21.7209C46.3501 21.7209 47.2317 21.593 47.6956 21.3372C48.1596 21.1046 48.3915 20.686 48.3915 20.0814C48.3915 19.4767 48.1828 19.0465 47.7652 18.7907C47.3476 18.5349 46.5589 18.2674 45.399 17.9883C43.1024 17.4302 41.5018 16.8139 40.5971 16.1395C39.6924 15.4418 39.24 14.3139 39.24 12.7558C39.24 9.4302 41.3742 7.76741 45.6426 7.76741C47.4752 7.76741 49.5978 8.06974 52.0104 8.67439L51.3493 11.9883C49.0527 11.3372 47.2781 11.0116 46.0254 11.0116C44.7727 11.0116 43.926 11.1279 43.4852 11.3604C43.0676 11.5697 42.8589 11.9418 42.8589 12.4767C42.8589 13.0116 43.0676 13.4069 43.4852 13.6628C43.926 13.8953 45.0395 14.2558 46.8257 14.7442C48.6119 15.2325 49.9226 15.8023 50.7577 16.4535C51.5928 17.0814 52.0104 18.1628 52.0104 19.6976C52.0104 23.2093 49.853 24.9651 45.5382 24.9651C43.52 24.9651 41.351 24.593 39.0312 23.8488Z" fill="#000228"/>
<path d="M58.2738 8.04648L58.3434 9.05811C60.2224 8.19764 61.6955 7.76741 62.7626 7.76741C64.6416 7.76741 66.0219 8.32555 66.9034 9.44183C67.8081 10.5349 68.2605 12.2558 68.2605 14.6046V24.6162H64.6764V14.7093C64.6764 13.593 64.4792 12.7209 64.0849 12.093C63.6905 11.4651 63.0758 11.1511 62.2407 11.1511C61.4055 11.1511 60.1181 11.5581 58.3782 12.3721V24.6162H54.7941V8.04648H58.2738Z" fill="#000228"/>
<path d="M70.9746 24.6162V21.4069H76.1594V11.2558H71.253V8.04648H79.7434V21.4069H84.6498V24.6162H70.9746ZM77.76 5.6395C77.0641 5.6395 76.5073 5.4302 76.0898 5.0116C75.6954 4.56974 75.4982 3.99997 75.4982 3.3023C75.4982 2.60462 75.707 2.04648 76.1246 1.62788C76.5421 1.20927 77.0989 0.999969 77.7948 0.999969C78.5139 0.999969 79.0591 1.20927 79.4302 1.62788C79.8246 2.02323 80.0218 2.58137 80.0218 3.3023C80.0218 4.02323 79.8246 4.59299 79.4302 5.0116C79.0359 5.4302 78.4791 5.6395 77.76 5.6395Z" fill="#000228"/>
<path d="M87.5379 24.6162V1.41858H91.122V14.7093L93.4185 14.4651C94.7176 12.7907 95.8543 10.9767 96.8286 9.02323L97.3158 8.04648H101.213C99.7516 11.1395 98.1277 13.7209 96.3415 15.7907C97.8261 17.9069 99.3224 20.4069 100.83 23.2907L101.526 24.6162H97.455C96.3183 22.1511 95.0192 19.7907 93.5577 17.5349L91.122 17.779V24.6162H87.5379Z" fill="#000228"/>
<path d="M106.954 24.6162V19.5581H112V24.6162H106.954Z" fill="#000228"/>
<path d="M5 24.6162V1.76741H11.9941C17.0513 1.76741 19.5798 3.74416 19.5798 7.69764C19.5798 8.97671 19.2551 10.0814 18.6055 11.0116C17.956 11.9418 17.0745 12.5232 15.961 12.7558C17.2601 12.9418 18.2692 13.5116 18.9883 14.4651C19.7306 15.3953 20.1134 16.6162 20.1366 18.1279C20.1366 22.4535 17.318 24.6162 11.681 24.6162H5ZM12.2029 21.4767C13.734 21.4767 14.8243 21.1395 15.4738 20.4651C16.1234 19.7907 16.4481 18.8953 16.4481 17.779C16.4481 16.6395 16.0886 15.8139 15.3694 15.3023C14.6735 14.7907 13.56 14.5349 12.0289 14.5349H8.61886V21.4767H12.2029ZM16.0306 7.97671C16.0306 5.9302 14.7663 4.90695 12.2377 4.90695H8.61886V11.3953H11.9593C14.6735 11.3953 16.0306 10.2558 16.0306 7.97671Z" stroke="black" stroke-width="2" mask="url(#path-1-outside-1_2_713)"/>
<path d="M22.5376 16.3488C22.5376 13.5349 23.1639 11.4069 24.4166 9.96509C25.6693 8.49997 27.4091 7.76741 29.6361 7.76741C31.8631 7.76741 33.5797 8.4302 34.786 9.75578C36.0155 11.0581 36.6534 12.9767 36.6998 15.5116L36.5607 18.093H26.4C26.6088 20.6046 27.8615 21.8604 30.158 21.8604C31.7587 21.8604 33.4521 21.5697 35.2384 20.9883L35.9691 24.0232C35.2268 24.279 34.2641 24.5 33.081 24.686C31.8979 24.8953 30.9236 25 30.158 25C25.0777 25 22.5376 22.1162 22.5376 16.3488ZM29.7753 11.0116C28.685 11.0116 27.8615 11.3372 27.3047 11.9883C26.7712 12.6162 26.4696 13.6744 26.4 15.1628H32.8374C32.8374 12.3953 31.8167 11.0116 29.7753 11.0116Z" stroke="black" stroke-width="2" mask="url(#path-1-outside-1_2_713)"/>
<path d="M39.0312 23.8488L39.7967 20.6744C42.0005 21.3721 43.752 21.7209 45.0511 21.7209C46.3501 21.7209 47.2317 21.593 47.6956 21.3372C48.1596 21.1046 48.3915 20.686 48.3915 20.0814C48.3915 19.4767 48.1828 19.0465 47.7652 18.7907C47.3476 18.5349 46.5589 18.2674 45.399 17.9883C43.1024 17.4302 41.5018 16.8139 40.5971 16.1395C39.6924 15.4418 39.24 14.3139 39.24 12.7558C39.24 9.4302 41.3742 7.76741 45.6426 7.76741C47.4752 7.76741 49.5978 8.06974 52.0104 8.67439L51.3493 11.9883C49.0527 11.3372 47.2781 11.0116 46.0254 11.0116C44.7727 11.0116 43.926 11.1279 43.4852 11.3604C43.0676 11.5697 42.8589 11.9418 42.8589 12.4767C42.8589 13.0116 43.0676 13.4069 43.4852 13.6628C43.926 13.8953 45.0395 14.2558 46.8257 14.7442C48.6119 15.2325 49.9226 15.8023 50.7577 16.4535C51.5928 17.0814 52.0104 18.1628 52.0104 19.6976C52.0104 23.2093 49.853 24.9651 45.5382 24.9651C43.52 24.9651 41.351 24.593 39.0312 23.8488Z" stroke="black" stroke-width="2" mask="url(#path-1-outside-1_2_713)"/>
<path d="M58.2738 8.04648L58.3434 9.05811C60.2224 8.19764 61.6955 7.76741 62.7626 7.76741C64.6416 7.76741 66.0219 8.32555 66.9034 9.44183C67.8081 10.5349 68.2605 12.2558 68.2605 14.6046V24.6162H64.6764V14.7093C64.6764 13.593 64.4792 12.7209 64.0849 12.093C63.6905 11.4651 63.0758 11.1511 62.2407 11.1511C61.4055 11.1511 60.1181 11.5581 58.3782 12.3721V24.6162H54.7941V8.04648H58.2738Z" stroke="black" stroke-width="2" mask="url(#path-1-outside-1_2_713)"/>
<path d="M70.9746 24.6162V21.4069H76.1594V11.2558H71.253V8.04648H79.7434V21.4069H84.6498V24.6162H70.9746ZM77.76 5.6395C77.0641 5.6395 76.5073 5.4302 76.0898 5.0116C75.6954 4.56974 75.4982 3.99997 75.4982 3.3023C75.4982 2.60462 75.707 2.04648 76.1246 1.62788C76.5421 1.20927 77.0989 0.999969 77.7948 0.999969C78.5139 0.999969 79.0591 1.20927 79.4302 1.62788C79.8246 2.02323 80.0218 2.58137 80.0218 3.3023C80.0218 4.02323 79.8246 4.59299 79.4302 5.0116C79.0359 5.4302 78.4791 5.6395 77.76 5.6395Z" stroke="black" stroke-width="2" mask="url(#path-1-outside-1_2_713)"/>
<path d="M87.5379 24.6162V1.41858H91.122V14.7093L93.4185 14.4651C94.7176 12.7907 95.8543 10.9767 96.8286 9.02323L97.3158 8.04648H101.213C99.7516 11.1395 98.1277 13.7209 96.3415 15.7907C97.8261 17.9069 99.3224 20.4069 100.83 23.2907L101.526 24.6162H97.455C96.3183 22.1511 95.0192 19.7907 93.5577 17.5349L91.122 17.779V24.6162H87.5379Z" stroke="black" stroke-width="2" mask="url(#path-1-outside-1_2_713)"/>
<path d="M106.954 24.6162V19.5581H112V24.6162H106.954Z" stroke="black" stroke-width="2" mask="url(#path-1-outside-1_2_713)"/>
</g>
<defs>
<filter id="filter0_d_2_713" x="0" y="-3.05176e-05" width="117" height="34" filterUnits="userSpaceOnUse" color-interpolation-filters="sRGB">
<feFlood flood-opacity="0" result="BackgroundImageFix"/>
<feColorMatrix in="SourceAlpha" type="matrix" values="0 0 0 0 0 0 0 0 0 0 0 0 0 0 0 0 0 0 127 0" result="hardAlpha"/>
<feOffset dy="4"/>
<feGaussianBlur stdDeviation="2"/>
<feComposite in2="hardAlpha" operator="out"/>
<feColorMatrix type="matrix" values="0 0 0 0 0 0 0 0 0 0 0 0 0 0 0 0 0 0 0.25 0"/>
<feBlend mode="normal" in2="BackgroundImageFix" result="effect1_dropShadow_2_713"/>
<feBlend mode="normal" in="SourceGraphic" in2="effect1_dropShadow_2_713" result="shape"/>
</filter>
</defs>
</svg>
